<svg xmlns="http://www.w3.org/2000/svg" viewBox="0 0 88.49 13.65"><defs><style>.cls-1,.cls-2{fill:#3c53d7;}.cls-2{font-size:7.91px;font-family:Montserrat-Regular, Montserrat;letter-spacing:0.03em;}.cls-3,.cls-4{letter-spacing:0.06em;}.cls-4{font-family:Montserrat-Black, Montserrat;font-weight:800;}</style></defs><g id="Layer_2" data-name="Layer 2"><g id="OBJECTS"><path class="cls-1" d="M12.42,3.84,9.81,1.23a4.24,4.24,0,0,0-6,0L1.23,3.84a4.24,4.24,0,0,0,0,6l2.61,2.61a4.24,4.24,0,0,0,6,0l2.61-2.61A4.24,4.24,0,0,0,12.42,3.84ZM10,9.81,9.81,10a4.24,4.24,0,0,1-6,0L3.7,9.81a4.24,4.24,0,0,1,0-6l.14-.14a4.24,4.24,0,0,1,6,0l.14.14A4.24,4.24,0,0,1,10,9.81Z"/><path class="cls-1" d="M5.09,5.09a2.45,2.45,0,1,0,3.47,0A2.45,2.45,0,0,0,5.09,5.09Z"/><text class="cls-2" transform="translate(16.97 9.47)">K<tspan class="cls-3" x="5.9" y="0">OM C </tspan><tspan class="cls-4" x="32.3" y="0">MARKET</tspan></text></g></g></svg>