<svg id="Layer_1" data-name="Layer 1" xmlns="http://www.w3.org/2000/svg" viewBox="0 0 32 32"><defs><style>.cls-1{fill:#fff;}</style></defs><title>xrp</title><circle cx="16" cy="16" r="16"/><path class="cls-1" d="M26.09,24.37c-.8,0-1.61,0-2.41,0a1,1,0,0,1-.85-.33c-1.38-1.4-2.79-2.77-4.19-4.16a3.56,3.56,0,0,0-5.28,0C12,21.27,10.55,22.64,9.17,24a1,1,0,0,1-.85.33c-.8,0-1.61,0-2.41,0v-.1a25.27,25.27,0,0,0,2.05-2c1.34-1.3,2.65-2.62,4-3.93a5.66,5.66,0,0,1,8.12,0l5.73,5.67c.09.08.14.23.3.22Z" transform="translate(0 0)"/><path class="cls-1" d="M6.29,8,6,7.63H8.7c.22,0,.32.16.45.29l4.26,4.21a3.57,3.57,0,0,0,5.18,0c1.43-1.4,2.85-2.8,4.26-4.22a.81.81,0,0,1,.66-.27H26l-.2.3L20.1,13.54a5.67,5.67,0,0,1-8.2,0Z" transform="translate(0 0)"/></svg>